{
	"asset":{
		"generator":"Khronos glTF Blender I/O v4.2.60",
		"version":"2.0"
	},
	"scene":0,
	"scenes":[
		{
			"name":"Scene",
			"nodes":[
				0
			]
		}
	],
	"nodes":[
		{
			"mesh":0,
			"name":"Landscape",
			"scale":[
				354.4151306152344,
				82.04054260253906,
				347.8518981933594
			],
			"translation":[
				45.833168029785156,
				-1.9517364501953125,
				-160.13681030273438
			]
		}
	],
	"materials":[
		{
			"doubleSided":true,
			"name":"brown",
			"pbrMetallicRoughness":{
				"baseColorFactor":[
					0.48779529333114624,
					0.12050512433052063,
					0.03193708881735802,
					1
				],
				"metallicFactor":0,
				"roughnessFactor":0.5
			}
		},
		{
			"doubleSided":true,
			"name":"Material",
			"pbrMetallicRoughness":{
				"baseColorFactor":[
					0.13013577461242676,
					0.05126950889825821,
					0.019382376223802567,
					1
				],
				"metallicFactor":0,
				"roughnessFactor":0.5
			}
		},
		{
			"doubleSided":true,
			"name":"Material.001",
			"pbrMetallicRoughness":{
				"baseColorFactor":[
					0.043734535574913025,
					0.30498775839805603,
					0.03189611807465553,
					1
				],
				"metallicFactor":0,
				"roughnessFactor":0.5
			}
		}
	],
	"meshes":[
		{
			"name":"Landscape",
			"primitives":[
				{
					"attributes":{
						"POSITION":0,
						"NORMAL":1,
						"TEXCOORD_0":2
					},
					"indices":3,
					"material":0
				},
				{
					"attributes":{
						"POSITION":4,
						"NORMAL":5,
						"TEXCOORD_0":6
					},
					"indices":7,
					"material":1
				},
				{
					"attributes":{
						"POSITION":8,
						"NORMAL":9,
						"TEXCOORD_0":10
					},
					"indices":11,
					"material":2
				}
			]
		}
	],
	"accessors":[
		{
			"bufferView":0,
			"componentType":5126,
			"count":61727,
			"max":[
				1,
				0.6337766051292419,
				1
			],
			"min":[
				-1,
				0,
				-1
			],
			"type":"VEC3"
		},
		{
			"bufferView":1,
			"componentType":5126,
			"count":61727,
			"type":"VEC3"
		},
		{
			"bufferView":2,
			"componentType":5126,
			"count":61727,
			"type":"VEC2"
		},
		{
			"bufferView":3,
			"componentType":5123,
			"count":96774,
			"type":"SCALAR"
		},
		{
			"bufferView":4,
			"componentType":5126,
			"count":17500,
			"max":[
				0.8263068795204163,
				1.104286551475525,
				0.9646035432815552
			],
			"min":[
				-0.9756962656974792,
				-0.05395044386386871,
				-0.9493122100830078
			],
			"type":"VEC3"
		},
		{
			"bufferView":5,
			"componentType":5126,
			"count":17500,
			"type":"VEC3"
		},
		{
			"bufferView":6,
			"componentType":5126,
			"count":17500,
			"type":"VEC2"
		},
		{
			"bufferView":7,
			"componentType":5123,
			"count":27000,
			"type":"SCALAR"
		},
		{
			"bufferView":8,
			"componentType":5126,
			"count":19400,
			"max":[
				0.8644556403160095,
				1.1466989517211914,
				0.9789544343948364
			],
			"min":[
				-1.0033100843429565,
				0.21765325963497162,
				-0.9813939332962036
			],
			"type":"VEC3"
		},
		{
			"bufferView":9,
			"componentType":5126,
			"count":19400,
			"type":"VEC3"
		},
		{
			"bufferView":10,
			"componentType":5126,
			"count":19400,
			"type":"VEC2"
		},
		{
			"bufferView":11,
			"componentType":5123,
			"count":19806,
			"type":"SCALAR"
		}
	],
	"bufferViews":[
		{
			"buffer":0,
			"byteLength":740724,
			"byteOffset":0,
			"target":34962
		},
		{
			"buffer":0,
			"byteLength":740724,
			"byteOffset":740724,
			"target":34962
		},
		{
			"buffer":0,
			"byteLength":493816,
			"byteOffset":1481448,
			"target":34962
		},
		{
			"buffer":0,
			"byteLength":193548,
			"byteOffset":1975264,
			"target":34963
		},
		{
			"buffer":0,
			"byteLength":210000,
			"byteOffset":2168812,
			"target":34962
		},
		{
			"buffer":0,
			"byteLength":210000,
			"byteOffset":2378812,
			"target":34962
		},
		{
			"buffer":0,
			"byteLength":140000,
			"byteOffset":2588812,
			"target":34962
		},
		{
			"buffer":0,
			"byteLength":54000,
			"byteOffset":2728812,
			"target":34963
		},
		{
			"buffer":0,
			"byteLength":232800,
			"byteOffset":2782812,
			"target":34962
		},
		{
			"buffer":0,
			"byteLength":232800,
			"byteOffset":3015612,
			"target":34962
		},
		{
			"buffer":0,
			"byteLength":155200,
			"byteOffset":3248412,
			"target":34962
		},
		{
			"buffer":0,
			"byteLength":39612,
			"byteOffset":3403612,
			"target":34963
		}
	],
	"buffers":[
		{
			"byteLength":3443224,
			"uri":"my_terrain.bin"
		}
	]
}
