{
	"asset":{
		"generator":"Khronos glTF Blender I/O v4.2.60",
		"version":"2.0"
	},
	"scene":0,
	"scenes":[
		{
			"name":"Scene",
			"nodes":[
				0
			]
		}
	],
	"nodes":[
		{
			"mesh":0,
			"name":"Landscape",
			"scale":[
				4.319999694824219,
				1,
				4.239999771118164
			]
		}
	],
	"materials":[
		{
			"doubleSided":true,
			"name":"brown",
			"pbrMetallicRoughness":{
				"baseColorFactor":[
					0.48779529333114624,
					0.12050512433052063,
					0.03193708881735802,
					1
				],
				"metallicFactor":0,
				"roughnessFactor":0.5
			}
		}
	],
	"meshes":[
		{
			"name":"Landscape",
			"primitives":[
				{
					"attributes":{
						"POSITION":0,
						"NORMAL":1
					},
					"indices":2,
					"material":0
				}
			]
		}
	],
	"accessors":[
		{
			"bufferView":0,
			"componentType":5126,
			"count":61727,
			"max":[
				1,
				0.6337766051292419,
				1
			],
			"min":[
				-1,
				0,
				-1
			],
			"type":"VEC3"
		},
		{
			"bufferView":1,
			"componentType":5126,
			"count":61727,
			"type":"VEC3"
		},
		{
			"bufferView":2,
			"componentType":5123,
			"count":96774,
			"type":"SCALAR"
		}
	],
	"bufferViews":[
		{
			"buffer":0,
			"byteLength":740724,
			"byteOffset":0,
			"target":34962
		},
		{
			"buffer":0,
			"byteLength":740724,
			"byteOffset":740724,
			"target":34962
		},
		{
			"buffer":0,
			"byteLength":193548,
			"byteOffset":1481448,
			"target":34963
		}
	],
	"buffers":[
		{
			"byteLength":1674996,
			"uri":"my_terrain.bin"
		}
	]
}
