{
	"asset":{
		"generator":"Khronos glTF Blender I/O v4.2.60",
		"version":"2.0"
	},
	"scene":0,
	"scenes":[
		{
			"name":"Scene",
			"nodes":[
				54
			]
		}
	],
	"nodes":[
		{
			"name":"head",
			"rotation":[
				-0.03185064718127251,
				1.2932666049181307e-10,
				7.190251061217623e-09,
				0.9994926452636719
			],
			"scale":[
				1,
				0.9999999403953552,
				0.9999999403953552
			],
			"translation":[
				-2.89507084971774e-10,
				0.245266854763031,
				8.747695900979124e-09
			]
		},
		{
			"children":[
				0
			],
			"name":"neck",
			"rotation":[
				0.23579344153404236,
				0.00014984564040787518,
				-0.005620680283755064,
				0.9717869758605957
			],
			"scale":[
				0.9999999403953552,
				1,
				0.9999999403953552
			],
			"translation":[
				0.0023722038604319096,
				0.8775951862335205,
				0.03904043883085251
			]
		},
		{
			"name":"lowerfinger.L",
			"rotation":[
				0.07802657037973404,
				-0.010184078477323055,
				-0.04076497256755829,
				0.9960654377937317
			],
			"scale":[
				1,
				1,
				0.9999999403953552
			],
			"translation":[
				-5.052424967288971e-07,
				0.042081572115421295,
				0
			]
		},
		{
			"children":[
				2
			],
			"name":"midfinger.L",
			"rotation":[
				0.003058994421735406,
				0.024703791365027428,
				-0.10774893313646317,
				0.9938664436340332
			],
			"translation":[
				1.0128132998943329e-07,
				0.08919480443000793,
				4.470348358154297e-08
			]
		},
		{
			"children":[
				3
			],
			"name":"upfinger.L",
			"rotation":[
				-0.13251234591007233,
				0.003786824643611908,
				-0.1121530681848526,
				0.9848085641860962
			],
			"scale":[
				1,
				1,
				0.9999998807907104
			],
			"translation":[
				-0.011983866803348064,
				0.2086523026227951,
				-0.07740449905395508
			]
		},
		{
			"name":"lowerfinger2.L",
			"rotation":[
				0.020496316254138947,
				-0.07888596504926682,
				-0.03073185868561268,
				0.9961990118026733
			],
			"scale":[
				0.9999999403953552,
				0.9999998807907104,
				1
			],
			"translation":[
				-2.7636997401714325e-07,
				0.05752016603946686,
				0
			]
		},
		{
			"children":[
				5
			],
			"name":"midfinger2.L",
			"rotation":[
				-0.012899360619485378,
				0.005790660157799721,
				-0.006611208897083998,
				0.9998781681060791
			],
			"scale":[
				1,
				0.9999999403953552,
				0.9999999403953552
			],
			"translation":[
				-3.501772880554199e-07,
				0.08088266849517822,
				3.725290298461914e-09
			]
		},
		{
			"children":[
				6
			],
			"name":"upfinger2.L",
			"rotation":[
				-0.004780090879648924,
				-0.01736089587211609,
				-0.15135829150676727,
				0.9883149862289429
			],
			"scale":[
				1,
				1,
				0.9999999403953552
			],
			"translation":[
				-0.016470806673169136,
				0.19975826144218445,
				-0.04867033660411835
			]
		},
		{
			"name":"lowerfinger3.L",
			"rotation":[
				0.027595046907663345,
				-0.07900820672512054,
				-0.0777120292186737,
				0.9934571385383606
			],
			"scale":[
				1,
				1.0000001192092896,
				1
			],
			"translation":[
				-2.662418410181999e-07,
				0.057268016040325165,
				1.862645149230957e-09
			]
		},
		{
			"children":[
				8
			],
			"name":"midfinger3.L",
			"rotation":[
				-0.021968839690089226,
				0.005379266571253538,
				-0.005221853964030743,
				0.9997305274009705
			],
			"scale":[
				1,
				1,
				1.0000001192092896
			],
			"translation":[
				-3.504101186990738e-08,
				0.08110138028860092,
				-3.725290298461914e-09
			]
		},
		{
			"children":[
				9
			],
			"name":"upfinger3.L",
			"rotation":[
				0.0233536995947361,
				-0.021670648828148842,
				-0.15478534996509552,
				0.9874342679977417
			],
			"scale":[
				0.9999999403953552,
				1,
				0.9999998807907104
			],
			"translation":[
				-0.01549981627613306,
				0.20161031186580658,
				0.003955814987421036
			]
		},
		{
			"name":"lowerfinger4.L",
			"rotation":[
				-0.00040968364919535816,
				-0.0888698473572731,
				-0.07190346717834473,
				0.9934445023536682
			],
			"scale":[
				1,
				0.9999999403953552,
				0.9999998807907104
			],
			"translation":[
				-8.362258085981011e-08,
				0.05499912053346634,
				1.3969838619232178e-09
			]
		},
		{
			"children":[
				11
			],
			"name":"midfinger4.L",
			"rotation":[
				-0.006421664729714394,
				0.004101782105863094,
				-0.006707087159156799,
				0.9999485015869141
			],
			"scale":[
				0.9999998211860657,
				0.9999999403953552,
				0.9999999403953552
			],
			"translation":[
				-1.571170287206769e-07,
				0.07986251264810562,
				-1.955777406692505e-08
			]
		},
		{
			"children":[
				12
			],
			"name":"upfinger4.L",
			"rotation":[
				0.0912860780954361,
				-0.03212898224592209,
				-0.16123932600021362,
				0.9821590781211853
			],
			"scale":[
				0.9999999403953552,
				0.9999999403953552,
				0.9999998807907104
			],
			"translation":[
				-0.012140178121626377,
				0.19467036426067352,
				0.05887221917510033
			]
		},
		{
			"name":"lowertoose.L",
			"rotation":[
				-0.2207394689321518,
				0.0565083771944046,
				-0.07592342048883438,
				0.9707299470901489
			],
			"scale":[
				1,
				1,
				0.9999998807907104
			],
			"translation":[
				-7.543712854385376e-08,
				0.09655044227838516,
				5.21540641784668e-08
			]
		},
		{
			"children":[
				14
			],
			"name":"toosemid.L",
			"rotation":[
				-0.10917928814888,
				0.11305904388427734,
				0.2043677270412445,
				0.9661942720413208
			],
			"scale":[
				0.9999998807907104,
				0.9999999403953552,
				0.9999999403953552
			],
			"translation":[
				-1.5320256352424622e-07,
				0.1047561913728714,
				-1.4528632164001465e-07
			]
		},
		{
			"children":[
				15
			],
			"name":"tooseup.L",
			"rotation":[
				0.2623865306377411,
				-0.2040182203054428,
				-0.3476930558681488,
				0.8767208456993103
			],
			"scale":[
				0.9999998807907104,
				0.9999998211860657,
				0.9999999403953552
			],
			"translation":[
				0.01618349365890026,
				0.09848413616418839,
				0.0634240061044693
			]
		},
		{
			"children":[
				4,
				7,
				10,
				13,
				16
			],
			"name":"hand.L",
			"rotation":[
				0.010900701396167278,
				0.0027983663603663445,
				0.18405717611312866,
				0.9828511476516724
			],
			"scale":[
				1,
				0.9999998807907104,
				0.9999999403953552
			],
			"translation":[
				-8.719437616377945e-09,
				0.47986963391304016,
				-7.2005832407739945e-09
			]
		},
		{
			"children":[
				17
			],
			"name":"lowerarm.L",
			"rotation":[
				3.07353360540219e-08,
				1.2929429260566394e-07,
				0.05775584653019905,
				0.9983307719230652
			],
			"translation":[
				2.633976947663541e-08,
				0.9386532306671143,
				4.051173618790926e-09
			]
		},
		{
			"children":[
				18
			],
			"name":"upperarm.L",
			"rotation":[
				-1.4646798263129313e-07,
				1.8646322530457837e-07,
				-0.5168158411979675,
				0.856096625328064
			],
			"scale":[
				1,
				0.9999999403953552,
				1
			],
			"translation":[
				2.772713685317285e-07,
				0.2603524625301361,
				-6.557456799782813e-09
			]
		},
		{
			"children":[
				19
			],
			"name":"KTF.L",
			"rotation":[
				0.07117001712322235,
				0.059325236827135086,
				-0.6338435411453247,
				0.7678917646408081
			],
			"scale":[
				0.9999999403953552,
				1,
				0.9999999403953552
			],
			"translation":[
				0.2734225392341614,
				0.721357524394989,
				0.0513678714632988
			]
		},
		{
			"name":"lowerfinger.R",
			"rotation":[
				0.07802657037973404,
				0.010184078477323055,
				0.04076501727104187,
				0.9960654377937317
			],
			"scale":[
				0.9999999403953552,
				1.0000001192092896,
				0.9999999403953552
			],
			"translation":[
				1.4668330550193787e-07,
				0.042081620544195175,
				0
			]
		},
		{
			"children":[
				21
			],
			"name":"midfinger.R",
			"rotation":[
				0.0030589865054935217,
				-0.024703772738575935,
				0.107748843729496,
				0.993866503238678
			],
			"scale":[
				1,
				1.0000001192092896,
				1
			],
			"translation":[
				-3.390014171600342e-07,
				0.08919449150562286,
				1.4901161193847656e-08
			]
		},
		{
			"children":[
				22
			],
			"name":"upfinger.R",
			"rotation":[
				-0.13251234591007233,
				-0.003786819986999035,
				0.11215309798717499,
				0.9848085641860962
			],
			"scale":[
				0.9999999403953552,
				1,
				0.9999998807907104
			],
			"translation":[
				0.011983866803348064,
				0.20865215361118317,
				-0.07740449160337448
			]
		},
		{
			"name":"lowerfinger2.R",
			"rotation":[
				0.020496327430009842,
				0.07888595014810562,
				0.03073178417980671,
				0.9961990118026733
			],
			"scale":[
				0.9999999403953552,
				0.9999998807907104,
				1.0000001192092896
			],
			"translation":[
				-8.032657206058502e-08,
				0.05752016231417656,
				-1.6763806343078613e-08
			]
		},
		{
			"children":[
				24
			],
			"name":"midfinger2.R",
			"rotation":[
				-0.01289940346032381,
				-0.0057906596921384335,
				0.006611186545342207,
				0.9998782277107239
			],
			"scale":[
				0.9999999403953552,
				1,
				1
			],
			"translation":[
				1.1129304766654968e-07,
				0.08088235557079315,
				-6.51925802230835e-09
			]
		},
		{
			"children":[
				25
			],
			"name":"upfinger2.R",
			"rotation":[
				-0.004780047107487917,
				0.017360905185341835,
				0.15135832130908966,
				0.9883149266242981
			],
			"scale":[
				1,
				1.0000001192092896,
				0.9999999403953552
			],
			"translation":[
				0.01647062785923481,
				0.19975823163986206,
				-0.04867033287882805
			]
		},
		{
			"name":"lowerfinger3.R",
			"rotation":[
				0.027595043182373047,
				0.07900821417570114,
				0.07771207392215729,
				0.9934571385383606
			],
			"scale":[
				1,
				1.0000001192092896,
				1
			],
			"translation":[
				-9.092036634683609e-08,
				0.05726807564496994,
				-7.450580596923828e-09
			]
		},
		{
			"children":[
				27
			],
			"name":"midfinger3.R",
			"rotation":[
				-0.021968845278024673,
				-0.005379270296543837,
				0.005221839062869549,
				0.9997305274009705
			],
			"translation":[
				3.573950380086899e-08,
				0.0811014398932457,
				-7.450580596923828e-09
			]
		},
		{
			"children":[
				28
			],
			"name":"upfinger3.R",
			"rotation":[
				0.02335370145738125,
				0.021670658141374588,
				0.15478533506393433,
				0.9874342679977417
			],
			"scale":[
				1,
				1,
				0.9999998807907104
			],
			"translation":[
				0.015499875880777836,
				0.20161016285419464,
				0.003955800086259842
			]
		},
		{
			"name":"lowerfinger4.R",
			"rotation":[
				-0.00040968245593830943,
				0.08886983245611191,
				0.07190344482660294,
				0.9934445023536682
			],
			"scale":[
				1,
				0.9999998807907104,
				1
			],
			"translation":[
				2.029482857324183e-07,
				0.05499911680817604,
				-6.05359673500061e-09
			]
		},
		{
			"children":[
				30
			],
			"name":"midfinger4.R",
			"rotation":[
				-0.006421689409762621,
				-0.004101772792637348,
				0.006707069929689169,
				0.9999485015869141
			],
			"scale":[
				0.9999999403953552,
				1.0000001192092896,
				1
			],
			"translation":[
				2.763990778476e-07,
				0.07986221462488174,
				3.259629011154175e-08
			]
		},
		{
			"children":[
				31
			],
			"name":"upfinger4.R",
			"rotation":[
				0.09128611534833908,
				0.03212897852063179,
				0.16123934090137482,
				0.9821590781211853
			],
			"scale":[
				0.9999998807907104,
				0.9999998807907104,
				0.9999998807907104
			],
			"translation":[
				0.012139999307692051,
				0.19467033445835114,
				0.05887220799922943
			]
		},
		{
			"name":"lowertoose.R",
			"rotation":[
				-0.220739483833313,
				-0.05650836601853371,
				0.07592345774173737,
				0.9707298874855042
			],
			"scale":[
				0.9999998807907104,
				0.9999998807907104,
				0.9999998211860657
			],
			"translation":[
				8.288770914077759e-08,
				0.09655050933361053,
				0
			]
		},
		{
			"children":[
				33
			],
			"name":"toosemid.R",
			"rotation":[
				-0.10917928069829941,
				-0.11305905878543854,
				-0.2043677568435669,
				0.9661942720413208
			],
			"scale":[
				0.9999999403953552,
				1.0000001192092896,
				1
			],
			"translation":[
				-2.3283064365386963e-08,
				0.10475636273622513,
				-6.332993507385254e-08
			]
		},
		{
			"children":[
				34
			],
			"name":"tooseup.R",
			"rotation":[
				0.2623864710330963,
				0.204018235206604,
				0.3476930856704712,
				0.8767208456993103
			],
			"scale":[
				0.9999999403953552,
				1,
				0.9999999403953552
			],
			"translation":[
				-0.01618325524032116,
				0.098484106361866,
				0.0634239912033081
			]
		},
		{
			"children":[
				23,
				26,
				29,
				32,
				35
			],
			"name":"hand.R",
			"rotation":[
				0.010900699533522129,
				-0.002798369387164712,
				-0.18405714631080627,
				0.9828511476516724
			],
			"scale":[
				1,
				0.9999999403953552,
				1.0000001192092896
			],
			"translation":[
				-2.2969913970882772e-07,
				0.47986963391304016,
				-1.3632813988806447e-08
			]
		},
		{
			"children":[
				36
			],
			"name":"lowerarm.R",
			"rotation":[
				3.012587157513735e-08,
				-1.307763710656218e-07,
				-0.057755887508392334,
				0.9983307719230652
			],
			"scale":[
				1,
				0.9999999403953552,
				1
			],
			"translation":[
				-2.6339762371208053e-08,
				0.9386529922485352,
				1.0802523320307955e-09
			]
		},
		{
			"children":[
				37
			],
			"name":"upperarm.R",
			"rotation":[
				-1.3615169791592052e-07,
				-1.9515795202096342e-07,
				0.5168158411979675,
				0.856096625328064
			],
			"translation":[
				6.779865202588553e-08,
				0.2603527009487152,
				-4.54564030860638e-09
			]
		},
		{
			"children":[
				38
			],
			"name":"KTF.R",
			"rotation":[
				0.07238644361495972,
				-0.057834722101688385,
				0.6252598762512207,
				0.7748970985412598
			],
			"translation":[
				-0.26223859190940857,
				0.7271714210510254,
				0.05294385924935341
			]
		},
		{
			"children":[
				1,
				20,
				39
			],
			"name":"chest",
			"rotation":[
				-0.048871468752622604,
				-0.0013100913492962718,
				0.008811364881694317,
				0.9987654089927673
			],
			"scale":[
				0.9999999403953552,
				0.9999998211860657,
				0.9999999403953552
			],
			"translation":[
				1.4731540431967005e-09,
				0.3039988577365875,
				1.2803084814549948e-08
			]
		},
		{
			"children":[
				40
			],
			"name":"hip",
			"rotation":[
				-0.10024046152830124,
				-0.00020798516925424337,
				-0.0028504026122391224,
				0.9949591755867004
			],
			"translation":[
				1.2005330063402653e-10,
				0.4724717438220978,
				1.2616688138678e-08
			]
		},
		{
			"name":"toose.L",
			"rotation":[
				0.15885916352272034,
				-9.786875310169307e-09,
				0.004980090539902449,
				0.9872887134552002
			],
			"translation":[
				1.0477378964424133e-08,
				0.3251473903656006,
				2.2351741790771484e-08
			]
		},
		{
			"children":[
				42
			],
			"name":"foot.L",
			"rotation":[
				0.5767900943756104,
				-0.00029002001974731684,
				-0.01709475927054882,
				0.8167135119438171
			],
			"scale":[
				1.0000001192092896,
				1,
				1.0000001192092896
			],
			"translation":[
				3.006812221428845e-08,
				1.2175041437149048,
				2.8638169169425964e-08
			]
		},
		{
			"children":[
				43
			],
			"name":"lowerleg.L",
			"rotation":[
				-0.10364367067813873,
				-0.0001094812250812538,
				-0.003005185630172491,
				0.9946099519729614
			],
			"translation":[
				-2.1131199900992215e-08,
				0.9150111675262451,
				-9.66247171163559e-09
			]
		},
		{
			"children":[
				44
			],
			"name":"upperleg.L",
			"rotation":[
				-0.0008432599133811891,
				-0.08519835025072098,
				-0.9958282709121704,
				0.03265852481126785
			],
			"scale":[
				1.0000004768371582,
				1.0000001192092896,
				1.0000027418136597
			],
			"translation":[
				0.22804787755012512,
				0.020106183364987373,
				0.038262832909822464
			]
		},
		{
			"name":"toose.R",
			"rotation":[
				0.15885856747627258,
				-1.5269883135715645e-08,
				-0.004980073776096106,
				0.9872888326644897
			],
			"scale":[
				1,
				1.0000001192092896,
				1.0000001192092896
			],
			"translation":[
				-2.2817403078079224e-08,
				0.32514870166778564,
				1.1175870895385742e-08
			]
		},
		{
			"children":[
				46
			],
			"name":"foot.R",
			"rotation":[
				0.5767920613288879,
				0.0002900609979405999,
				0.017094770446419716,
				0.8167121410369873
			],
			"scale":[
				1,
				0.9999999403953552,
				0.9999999403953552
			],
			"translation":[
				1.1150859791086987e-08,
				1.2175049781799316,
				-2.0721927285194397e-08
			]
		},
		{
			"children":[
				47
			],
			"name":"lowerleg.R",
			"rotation":[
				-0.1036442369222641,
				0.00010941050277324393,
				0.003005176316946745,
				0.9946098923683167
			],
			"scale":[
				1.000000238418579,
				1,
				1.0000001192092896
			],
			"translation":[
				-2.4258042685687542e-08,
				0.9150113463401794,
				4.6566128730773926e-09
			]
		},
		{
			"children":[
				48
			],
			"name":"upperleg.R",
			"rotation":[
				-0.00046717695659026504,
				0.08521198481321335,
				0.9958561062812805,
				0.03176948055624962
			],
			"scale":[
				0.9999995231628418,
				0.9999998211860657,
				0.9999966025352478
			],
			"translation":[
				-0.2280474305152893,
				0.01971641555428505,
				0.03846794366836548
			]
		},
		{
			"children":[
				41,
				45,
				49
			],
			"name":"wiest",
			"rotation":[
				0.05649204179644585,
				-0.00020036612113472074,
				-0.00043930765241384506,
				0.9984029531478882
			],
			"scale":[
				1,
				1.0000001192092896,
				1
			],
			"translation":[
				0,
				-0.031493425369262695,
				-0.11870621144771576
			]
		},
		{
			"name":"hellikk.L",
			"rotation":[
				-0.7255880832672119,
				0,
				0,
				0.6881293654441833
			],
			"scale":[
				1,
				0.9999999403953552,
				1
			],
			"translation":[
				0.3571854829788208,
				-2.129411458969116,
				-0.20751827955245972
			]
		},
		{
			"name":"hellikk.R",
			"rotation":[
				-0.7255880832672119,
				0,
				0,
				0.6881293654441833
			],
			"scale":[
				1,
				0.9999999403953552,
				1
			],
			"translation":[
				-0.3571854829788208,
				-2.129411458969116,
				-0.20751827955245972
			]
		},
		{
			"mesh":0,
			"name":"Cube",
			"skin":0
		},
		{
			"children":[
				53,
				50,
				51,
				52
			],
			"name":"Armature",
			"translation":[
				-0.0006016269326210022,
				2.350790500640869,
				0.08912346512079239
			]
		}
	],
	"meshes":[
		{
			"name":"Cube.001",
			"primitives":[
				{
					"attributes":{
						"POSITION":0,
						"NORMAL":1,
						"TEXCOORD_0":2,
						"JOINTS_0":3,
						"WEIGHTS_0":4
					},
					"indices":5
				}
			]
		}
	],
	"skins":[
		{
			"inverseBindMatrices":6,
			"joints":[
				50,
				41,
				40,
				1,
				0,
				20,
				19,
				18,
				17,
				4,
				3,
				2,
				7,
				6,
				5,
				10,
				9,
				8,
				13,
				12,
				11,
				16,
				15,
				14,
				39,
				38,
				37,
				36,
				23,
				22,
				21,
				26,
				25,
				24,
				29,
				28,
				27,
				32,
				31,
				30,
				35,
				34,
				33,
				45,
				44,
				43,
				42,
				49,
				48,
				47,
				46,
				51,
				52
			],
			"name":"Armature"
		}
	],
	"accessors":[
		{
			"bufferView":0,
			"componentType":5126,
			"count":1825,
			"max":[
				1.8135672807693481,
				4.824968338012695,
				0.3482518196105957
			],
			"min":[
				-0.015311547555029392,
				-0.0048141032457351685,
				-0.3440939486026764
			],
			"type":"VEC3"
		},
		{
			"bufferView":1,
			"componentType":5126,
			"count":1825,
			"type":"VEC3"
		},
		{
			"bufferView":2,
			"componentType":5126,
			"count":1825,
			"type":"VEC2"
		},
		{
			"bufferView":3,
			"componentType":5121,
			"count":1825,
			"type":"VEC4"
		},
		{
			"bufferView":4,
			"componentType":5126,
			"count":1825,
			"type":"VEC4"
		},
		{
			"bufferView":5,
			"componentType":5123,
			"count":7164,
			"type":"SCALAR"
		},
		{
			"bufferView":6,
			"componentType":5126,
			"count":53,
			"type":"MAT4"
		}
	],
	"bufferViews":[
		{
			"buffer":0,
			"byteLength":21900,
			"byteOffset":0,
			"target":34962
		},
		{
			"buffer":0,
			"byteLength":21900,
			"byteOffset":21900,
			"target":34962
		},
		{
			"buffer":0,
			"byteLength":14600,
			"byteOffset":43800,
			"target":34962
		},
		{
			"buffer":0,
			"byteLength":7300,
			"byteOffset":58400,
			"target":34962
		},
		{
			"buffer":0,
			"byteLength":29200,
			"byteOffset":65700,
			"target":34962
		},
		{
			"buffer":0,
			"byteLength":14328,
			"byteOffset":94900,
			"target":34963
		},
		{
			"buffer":0,
			"byteLength":3392,
			"byteOffset":109228
		}
	],
	"buffers":[
		{
			"byteLength":112620,
			"uri":"BASEmodel.bin"
		}
	]
}
