{
	"asset":{
		"generator":"Khronos glTF Blender I/O v4.2.60",
		"version":"2.0"
	},
	"scene":0,
	"scenes":[
		{
			"name":"Scene",
			"nodes":[
				0,
				1
			]
		}
	],
	"nodes":[
		{
			"mesh":0,
			"name":"Landscape",
			"scale":[
				4.341615676879883,
				1.0050036907196045,
				4.2612152099609375
			]
		},
		{
			"mesh":1,
			"name":"Plane.006",
			"rotation":[
				-0.4982633590698242,
				-0.5016721487045288,
				0.497335284948349,
				0.5027090311050415
			],
			"scale":[
				1.4896332025527954,
				1.0000468492507935,
				1.000002384185791
			],
			"translation":[
				-0.4948849678039551,
				1.1623729467391968,
				4.236651420593262
			]
		}
	],
	"materials":[
		{
			"doubleSided":true,
			"name":"brown",
			"pbrMetallicRoughness":{
				"baseColorFactor":[
					0.48779529333114624,
					0.12050512433052063,
					0.03193708881735802,
					1
				],
				"metallicFactor":0,
				"roughnessFactor":0.5
			}
		},
		{
			"doubleSided":true,
			"name":"Material",
			"pbrMetallicRoughness":{
				"baseColorFactor":[
					0.8000473976135254,
					0.3651805520057678,
					0.24136075377464294,
					1
				],
				"metallicFactor":0,
				"roughnessFactor":0.5
			}
		}
	],
	"meshes":[
		{
			"name":"Landscape",
			"primitives":[
				{
					"attributes":{
						"POSITION":0,
						"NORMAL":1
					},
					"indices":2,
					"material":0
				}
			]
		},
		{
			"name":"Plane.006",
			"primitives":[
				{
					"attributes":{
						"POSITION":3,
						"NORMAL":4,
						"TEXCOORD_0":5
					},
					"indices":6,
					"material":1
				}
			]
		}
	],
	"accessors":[
		{
			"bufferView":0,
			"componentType":5126,
			"count":61727,
			"max":[
				1,
				0.6337766051292419,
				1
			],
			"min":[
				-1,
				0,
				-1
			],
			"type":"VEC3"
		},
		{
			"bufferView":1,
			"componentType":5126,
			"count":61727,
			"type":"VEC3"
		},
		{
			"bufferView":2,
			"componentType":5123,
			"count":96774,
			"type":"SCALAR"
		},
		{
			"bufferView":3,
			"componentType":5126,
			"count":251,
			"max":[
				1.0123778581619263,
				8.500240325927734,
				3.8419296741485596
			],
			"min":[
				-1.079771876335144,
				-0.029443740844726562,
				-4.792500019073486
			],
			"type":"VEC3"
		},
		{
			"bufferView":4,
			"componentType":5126,
			"count":251,
			"type":"VEC3"
		},
		{
			"bufferView":5,
			"componentType":5126,
			"count":251,
			"type":"VEC2"
		},
		{
			"bufferView":6,
			"componentType":5123,
			"count":549,
			"type":"SCALAR"
		}
	],
	"bufferViews":[
		{
			"buffer":0,
			"byteLength":740724,
			"byteOffset":0,
			"target":34962
		},
		{
			"buffer":0,
			"byteLength":740724,
			"byteOffset":740724,
			"target":34962
		},
		{
			"buffer":0,
			"byteLength":193548,
			"byteOffset":1481448,
			"target":34963
		},
		{
			"buffer":0,
			"byteLength":3012,
			"byteOffset":1674996,
			"target":34962
		},
		{
			"buffer":0,
			"byteLength":3012,
			"byteOffset":1678008,
			"target":34962
		},
		{
			"buffer":0,
			"byteLength":2008,
			"byteOffset":1681020,
			"target":34962
		},
		{
			"buffer":0,
			"byteLength":1098,
			"byteOffset":1683028,
			"target":34963
		}
	],
	"buffers":[
		{
			"byteLength":1684128,
			"uri":"my_terrain.bin"
		}
	]
}
