{
	"asset":{
		"generator":"Khronos glTF Blender I/O v4.2.60",
		"version":"2.0"
	},
	"scene":0,
	"scenes":[
		{
			"name":"Scene",
			"nodes":[
				0,
				1
			]
		}
	],
	"nodes":[
		{
			"mesh":0,
			"name":"Landscape",
			"scale":[
				354.4151306152344,
				82.04054260253906,
				347.8518981933594
			],
			"translation":[
				45.833168029785156,
				-1.9517364501953125,
				-160.13681030273438
			]
		},
		{
			"mesh":1,
			"name":"Tree_3.016",
			"rotation":[
				0.023157818242907524,
				-0.5754972696304321,
				-0.02619713544845581,
				0.817055881023407
			],
			"scale":[
				0.3543606698513031,
				0.35436058044433594,
				0.35436058044433594
			],
			"translation":[
				-46.96428680419922,
				1.9999034404754639,
				164.08883666992188
			]
		}
	],
	"materials":[
		{
			"doubleSided":true,
			"name":"brown",
			"pbrMetallicRoughness":{
				"baseColorFactor":[
					0.48779529333114624,
					0.12050512433052063,
					0.03193708881735802,
					1
				],
				"metallicFactor":0,
				"roughnessFactor":0.5
			}
		},
		{
			"doubleSided":true,
			"name":"Material",
			"pbrMetallicRoughness":{
				"baseColorFactor":[
					0.13013577461242676,
					0.05126950889825821,
					0.019382376223802567,
					1
				],
				"metallicFactor":0,
				"roughnessFactor":0.5
			}
		},
		{
			"doubleSided":true,
			"name":"Material.001",
			"pbrMetallicRoughness":{
				"baseColorFactor":[
					0.043734535574913025,
					0.30498775839805603,
					0.03189611807465553,
					1
				],
				"metallicFactor":0,
				"roughnessFactor":0.5
			}
		}
	],
	"meshes":[
		{
			"name":"Landscape",
			"primitives":[
				{
					"attributes":{
						"POSITION":0,
						"NORMAL":1
					},
					"indices":2,
					"material":0
				}
			]
		},
		{
			"name":"Mesh.023",
			"primitives":[
				{
					"attributes":{
						"POSITION":3,
						"NORMAL":4,
						"TEXCOORD_0":5
					},
					"indices":6,
					"material":1
				},
				{
					"attributes":{
						"POSITION":7,
						"NORMAL":8,
						"TEXCOORD_0":9
					},
					"indices":10,
					"material":2
				}
			]
		}
	],
	"accessors":[
		{
			"bufferView":0,
			"componentType":5126,
			"count":61727,
			"max":[
				1,
				0.6337766051292419,
				1
			],
			"min":[
				-1,
				0,
				-1
			],
			"type":"VEC3"
		},
		{
			"bufferView":1,
			"componentType":5126,
			"count":61727,
			"type":"VEC3"
		},
		{
			"bufferView":2,
			"componentType":5123,
			"count":96774,
			"type":"SCALAR"
		},
		{
			"bufferView":3,
			"componentType":5126,
			"count":17500,
			"max":[
				192.99241638183594,
				194.30137634277344,
				576.7849731445312
			],
			"min":[
				-1933.0546875,
				-153.60537719726562,
				-1416.8192138671875
			],
			"type":"VEC3"
		},
		{
			"bufferView":4,
			"componentType":5126,
			"count":17500,
			"type":"VEC3"
		},
		{
			"bufferView":5,
			"componentType":5126,
			"count":17500,
			"type":"VEC2"
		},
		{
			"bufferView":6,
			"componentType":5123,
			"count":27000,
			"type":"SCALAR"
		},
		{
			"bufferView":7,
			"componentType":5126,
			"count":19400,
			"max":[
				207.73187255859375,
				213.96881103515625,
				603.5042114257812
			],
			"min":[
				-1963.0345458984375,
				-94.0373764038086,
				-1451.8955078125
			],
			"type":"VEC3"
		},
		{
			"bufferView":8,
			"componentType":5126,
			"count":19400,
			"type":"VEC3"
		},
		{
			"bufferView":9,
			"componentType":5126,
			"count":19400,
			"type":"VEC2"
		},
		{
			"bufferView":10,
			"componentType":5123,
			"count":19806,
			"type":"SCALAR"
		}
	],
	"bufferViews":[
		{
			"buffer":0,
			"byteLength":740724,
			"byteOffset":0,
			"target":34962
		},
		{
			"buffer":0,
			"byteLength":740724,
			"byteOffset":740724,
			"target":34962
		},
		{
			"buffer":0,
			"byteLength":193548,
			"byteOffset":1481448,
			"target":34963
		},
		{
			"buffer":0,
			"byteLength":210000,
			"byteOffset":1674996,
			"target":34962
		},
		{
			"buffer":0,
			"byteLength":210000,
			"byteOffset":1884996,
			"target":34962
		},
		{
			"buffer":0,
			"byteLength":140000,
			"byteOffset":2094996,
			"target":34962
		},
		{
			"buffer":0,
			"byteLength":54000,
			"byteOffset":2234996,
			"target":34963
		},
		{
			"buffer":0,
			"byteLength":232800,
			"byteOffset":2288996,
			"target":34962
		},
		{
			"buffer":0,
			"byteLength":232800,
			"byteOffset":2521796,
			"target":34962
		},
		{
			"buffer":0,
			"byteLength":155200,
			"byteOffset":2754596,
			"target":34962
		},
		{
			"buffer":0,
			"byteLength":39612,
			"byteOffset":2909796,
			"target":34963
		}
	],
	"buffers":[
		{
			"byteLength":2949408,
			"uri":"my_terrain.bin"
		}
	]
}
