{
	"asset":{
		"generator":"Khronos glTF Blender I/O v4.2.60",
		"version":"2.0"
	},
	"scene":0,
	"scenes":[
		{
			"name":"Scene",
			"nodes":[
				0,
				1
			]
		}
	],
	"nodes":[
		{
			"mesh":0,
			"name":"Landscape",
			"scale":[
				4.319999694824219,
				1,
				4.239999771118164
			]
		},
		{
			"mesh":1,
			"name":"Tree_3.016",
			"rotation":[
				0.023157820105552673,
				-0.5754973888397217,
				-0.02619713917374611,
				0.8170559406280518
			],
			"scale":[
				0.004319335799664259,
				0.004319335799664259,
				0.004319335799664259
			],
			"translation":[
				-1.1311169862747192,
				0.0481669157743454,
				3.9520175457000732
			]
		}
	],
	"materials":[
		{
			"doubleSided":true,
			"name":"brown",
			"pbrMetallicRoughness":{
				"baseColorFactor":[
					0.13127943873405457,
					0.03591926768422127,
					0.011194330640137196,
					1
				],
				"metallicFactor":0,
				"roughnessFactor":0.5
			}
		},
		{
			"doubleSided":true,
			"name":"Material",
			"pbrMetallicRoughness":{
				"baseColorFactor":[
					0.800000011920929,
					0.800000011920929,
					0.800000011920929,
					1
				],
				"metallicFactor":0,
				"roughnessFactor":0.5
			}
		}
	],
	"meshes":[
		{
			"name":"Landscape",
			"primitives":[
				{
					"attributes":{
						"POSITION":0,
						"NORMAL":1
					},
					"indices":2,
					"material":0
				}
			]
		},
		{
			"name":"Mesh.023",
			"primitives":[
				{
					"attributes":{
						"POSITION":3,
						"NORMAL":4,
						"TEXCOORD_0":5
					},
					"indices":6,
					"material":1
				}
			]
		}
	],
	"accessors":[
		{
			"bufferView":0,
			"componentType":5126,
			"count":61727,
			"max":[
				1,
				0.6337766051292419,
				1
			],
			"min":[
				-1,
				0,
				-1
			],
			"type":"VEC3"
		},
		{
			"bufferView":1,
			"componentType":5126,
			"count":61727,
			"type":"VEC3"
		},
		{
			"bufferView":2,
			"componentType":5123,
			"count":96774,
			"type":"SCALAR"
		},
		{
			"bufferView":3,
			"componentType":5126,
			"count":36900,
			"max":[
				207.73187255859375,
				213.96881103515625,
				603.5042114257812
			],
			"min":[
				-1963.0345458984375,
				-153.60537719726562,
				-1451.8955078125
			],
			"type":"VEC3"
		},
		{
			"bufferView":4,
			"componentType":5126,
			"count":36900,
			"type":"VEC3"
		},
		{
			"bufferView":5,
			"componentType":5126,
			"count":36900,
			"type":"VEC2"
		},
		{
			"bufferView":6,
			"componentType":5123,
			"count":46806,
			"type":"SCALAR"
		}
	],
	"bufferViews":[
		{
			"buffer":0,
			"byteLength":740724,
			"byteOffset":0,
			"target":34962
		},
		{
			"buffer":0,
			"byteLength":740724,
			"byteOffset":740724,
			"target":34962
		},
		{
			"buffer":0,
			"byteLength":193548,
			"byteOffset":1481448,
			"target":34963
		},
		{
			"buffer":0,
			"byteLength":442800,
			"byteOffset":1674996,
			"target":34962
		},
		{
			"buffer":0,
			"byteLength":442800,
			"byteOffset":2117796,
			"target":34962
		},
		{
			"buffer":0,
			"byteLength":295200,
			"byteOffset":2560596,
			"target":34962
		},
		{
			"buffer":0,
			"byteLength":93612,
			"byteOffset":2855796,
			"target":34963
		}
	],
	"buffers":[
		{
			"byteLength":2949408,
			"uri":"my_terrain.bin"
		}
	]
}
